<mxfile host="app.diagrams.net" modified="2023-08-15T01:13:05.974Z" agent="Mozilla/5.0 (Windows NT 10.0; Win64; x64) AppleWebKit/537.36 (KHTML, like Gecko) Chrome/115.0.0.0 Safari/537.36" etag="W92scMNdKmp-sn5n56SV" version="21.6.8" type="github">
  <diagram name="Página-1" id="LZOiCEtN_NCGizEqBooI">
    <mxGraphModel dx="1093" dy="598" grid="1" gridSize="10" guides="1" tooltips="1" connect="1" arrows="1" fold="1" page="1" pageScale="1" pageWidth="827" pageHeight="1169" math="0" shadow="0">
      <root>
        <mxCell id="0" />
        <mxCell id="1" parent="0" />
        <mxCell id="o5PSsMGVFRECID5mcdXn-7" style="edgeStyle=orthogonalEdgeStyle;rounded=0;orthogonalLoop=1;jettySize=auto;html=1;entryX=0.5;entryY=0;entryDx=0;entryDy=0;" edge="1" parent="1" source="o5PSsMGVFRECID5mcdXn-1" target="o5PSsMGVFRECID5mcdXn-3">
          <mxGeometry relative="1" as="geometry" />
        </mxCell>
        <mxCell id="o5PSsMGVFRECID5mcdXn-1" value="&lt;font face=&quot;Comic Sans MS&quot; style=&quot;font-size: 18px;&quot;&gt;inicio&lt;/font&gt;" style="rounded=1;whiteSpace=wrap;html=1;" vertex="1" parent="1">
          <mxGeometry x="354" y="20" width="120" height="70" as="geometry" />
        </mxCell>
        <mxCell id="o5PSsMGVFRECID5mcdXn-2" value="&lt;font face=&quot;Comic Sans MS&quot; style=&quot;font-size: 18px;&quot;&gt;fim&lt;/font&gt;" style="rounded=1;whiteSpace=wrap;html=1;" vertex="1" parent="1">
          <mxGeometry x="354" y="1140" width="120" height="60" as="geometry" />
        </mxCell>
        <mxCell id="o5PSsMGVFRECID5mcdXn-8" style="edgeStyle=orthogonalEdgeStyle;rounded=0;orthogonalLoop=1;jettySize=auto;html=1;entryX=0.5;entryY=0;entryDx=0;entryDy=0;" edge="1" parent="1" source="o5PSsMGVFRECID5mcdXn-3" target="o5PSsMGVFRECID5mcdXn-6">
          <mxGeometry relative="1" as="geometry" />
        </mxCell>
        <mxCell id="o5PSsMGVFRECID5mcdXn-3" value="&lt;font style=&quot;font-size: 18px;&quot;&gt;&lt;b&gt;inteiro&lt;/b&gt;&lt;br&gt;&amp;nbsp;&amp;nbsp;&amp;nbsp;&amp;nbsp;&lt;br&gt;&amp;nbsp;&amp;nbsp;&amp;nbsp;&amp;nbsp;&lt;span style=&quot;white-space: pre;&quot;&gt;&#x9;&lt;/span&gt;&amp;nbsp;númeroTab &amp;lt;- 0&lt;br&gt;&amp;nbsp;&amp;nbsp;&amp;nbsp;&lt;span style=&quot;white-space: pre;&quot;&gt;&#x9;&lt;/span&gt;&amp;nbsp;Termo &amp;lt;- 0&amp;nbsp;&amp;nbsp;&amp;nbsp;&amp;nbsp;&lt;br&gt;&amp;nbsp;&amp;nbsp;&amp;nbsp;&lt;span style=&quot;white-space: pre;&quot;&gt;&#x9;&amp;nbsp;&lt;/span&gt;contador &amp;lt;- 1&lt;/font&gt;" style="rounded=0;whiteSpace=wrap;html=1;align=left;" vertex="1" parent="1">
          <mxGeometry x="284" y="140" width="260" height="100" as="geometry" />
        </mxCell>
        <mxCell id="o5PSsMGVFRECID5mcdXn-11" style="edgeStyle=orthogonalEdgeStyle;rounded=0;orthogonalLoop=1;jettySize=auto;html=1;entryX=0.5;entryY=0;entryDx=0;entryDy=0;exitX=0.5;exitY=0.863;exitDx=0;exitDy=0;exitPerimeter=0;" edge="1" parent="1" source="o5PSsMGVFRECID5mcdXn-6" target="o5PSsMGVFRECID5mcdXn-9">
          <mxGeometry relative="1" as="geometry" />
        </mxCell>
        <mxCell id="o5PSsMGVFRECID5mcdXn-6" value="&lt;div style=&quot;text-align: justify;&quot;&gt;&lt;span style=&quot;background-color: initial;&quot;&gt;&lt;font style=&quot;font-size: 18px;&quot;&gt;Olá jovem, vamos calcular!&lt;/font&gt;&lt;/span&gt;&lt;/div&gt;&lt;div style=&quot;text-align: justify;&quot;&gt;&lt;span style=&quot;background-color: initial;&quot;&gt;&lt;font size=&quot;3&quot;&gt;Eu sou bom em tábuadas!&lt;/font&gt;&lt;/span&gt;&lt;/div&gt;" style="shape=document;whiteSpace=wrap;html=1;boundedLbl=1;" vertex="1" parent="1">
          <mxGeometry x="289.5" y="290" width="249" height="80" as="geometry" />
        </mxCell>
        <mxCell id="o5PSsMGVFRECID5mcdXn-12" style="edgeStyle=orthogonalEdgeStyle;rounded=0;orthogonalLoop=1;jettySize=auto;html=1;entryX=0.5;entryY=0;entryDx=0;entryDy=0;" edge="1" parent="1" source="o5PSsMGVFRECID5mcdXn-9" target="o5PSsMGVFRECID5mcdXn-10">
          <mxGeometry relative="1" as="geometry" />
        </mxCell>
        <mxCell id="o5PSsMGVFRECID5mcdXn-9" value="&lt;font style=&quot;font-size: 18px;&quot;&gt;Digita o numero que deseja tabular:&lt;br&gt;(númeroTab)&lt;/font&gt;" style="shape=parallelogram;perimeter=parallelogramPerimeter;whiteSpace=wrap;html=1;fixedSize=1;" vertex="1" parent="1">
          <mxGeometry x="253" y="420" width="321" height="60" as="geometry" />
        </mxCell>
        <mxCell id="o5PSsMGVFRECID5mcdXn-24" style="edgeStyle=orthogonalEdgeStyle;rounded=0;orthogonalLoop=1;jettySize=auto;html=1;" edge="1" parent="1">
          <mxGeometry relative="1" as="geometry">
            <mxPoint x="480" y="1170" as="targetPoint" />
            <mxPoint x="586.9999999999993" y="560" as="sourcePoint" />
            <Array as="points">
              <mxPoint x="706" y="560" />
              <mxPoint x="706" y="1170" />
            </Array>
          </mxGeometry>
        </mxCell>
        <mxCell id="o5PSsMGVFRECID5mcdXn-30" style="edgeStyle=orthogonalEdgeStyle;rounded=0;orthogonalLoop=1;jettySize=auto;html=1;entryX=0.5;entryY=0;entryDx=0;entryDy=0;" edge="1" parent="1" source="o5PSsMGVFRECID5mcdXn-10" target="o5PSsMGVFRECID5mcdXn-21">
          <mxGeometry relative="1" as="geometry" />
        </mxCell>
        <mxCell id="o5PSsMGVFRECID5mcdXn-10" value="&lt;font style=&quot;font-size: 18px;&quot;&gt;(contador &amp;lt;= 10) ?&lt;/font&gt;" style="rhombus;whiteSpace=wrap;html=1;" vertex="1" parent="1">
          <mxGeometry x="267" y="520" width="294" height="80" as="geometry" />
        </mxCell>
        <mxCell id="o5PSsMGVFRECID5mcdXn-14" value="&lt;font style=&quot;font-size: 24px;&quot;&gt;Não&lt;/font&gt;" style="text;html=1;align=center;verticalAlign=middle;resizable=0;points=[];autosize=1;strokeColor=none;fillColor=none;" vertex="1" parent="1">
          <mxGeometry x="561" y="500" width="70" height="40" as="geometry" />
        </mxCell>
        <mxCell id="o5PSsMGVFRECID5mcdXn-27" style="edgeStyle=orthogonalEdgeStyle;rounded=0;orthogonalLoop=1;jettySize=auto;html=1;entryX=0.5;entryY=0;entryDx=0;entryDy=0;" edge="1" parent="1" source="o5PSsMGVFRECID5mcdXn-21" target="o5PSsMGVFRECID5mcdXn-25">
          <mxGeometry relative="1" as="geometry" />
        </mxCell>
        <mxCell id="o5PSsMGVFRECID5mcdXn-21" value="&lt;div&gt;&lt;font style=&quot;font-size: 18px;&quot;&gt;&lt;span style=&quot;background-color: initial;&quot;&gt;contador &amp;lt;- contador + 1&lt;/span&gt;&lt;br&gt;&lt;/font&gt;&lt;/div&gt;&lt;div&gt;&lt;font size=&quot;3&quot;&gt;&lt;span style=&quot;&quot;&gt;&lt;/span&gt;&lt;/font&gt;&lt;/div&gt;&lt;div&gt;&lt;span style=&quot;&quot;&gt;&lt;font size=&quot;3&quot;&gt;termo &amp;lt;- termo + númeroTab&lt;/font&gt;&lt;/span&gt;&lt;/div&gt;&lt;div&gt;&lt;span style=&quot;&quot;&gt;&lt;font size=&quot;3&quot;&gt;escreva(termo)&lt;/font&gt;&lt;/span&gt;&lt;/div&gt;" style="whiteSpace=wrap;html=1;aspect=fixed;align=left;" vertex="1" parent="1">
          <mxGeometry x="304" y="640" width="220" height="220" as="geometry" />
        </mxCell>
        <mxCell id="o5PSsMGVFRECID5mcdXn-28" style="edgeStyle=orthogonalEdgeStyle;rounded=0;orthogonalLoop=1;jettySize=auto;html=1;entryX=0.5;entryY=0;entryDx=0;entryDy=0;" edge="1" parent="1" source="o5PSsMGVFRECID5mcdXn-25" target="o5PSsMGVFRECID5mcdXn-2">
          <mxGeometry relative="1" as="geometry" />
        </mxCell>
        <mxCell id="o5PSsMGVFRECID5mcdXn-25" value="&lt;font style=&quot;font-size: 18px;&quot;&gt;escreva (termo)&lt;/font&gt;" style="shape=document;whiteSpace=wrap;html=1;boundedLbl=1;" vertex="1" parent="1">
          <mxGeometry x="290" y="970" width="246" height="80" as="geometry" />
        </mxCell>
      </root>
    </mxGraphModel>
  </diagram>
</mxfile>
